# File created by Blade
# Date/Time:  Wed Jan 28 15:39:58 2015
#---------------------------------------------------------
:version 1.10
:name HOM
:units
  mass 1.0
  length 1.000000
  angle deg
:documentation
     Acclaim Skeleton File
:root
   axis xyz
   order TX TY TZ RX RY RZ
   position 0.000000 0.000000 0.000000
   orientation 0 0 0
:bonedata
   begin
      id 1
      name Spine_dum
      direction 0.000000 1.000000 0.000000
      length 6.864287
      axis 0.0 0.0 0.0 xyz
   end
   begin
      id 2
      name LeftUpLeg_dum
      direction 1.000000 0.000000 0.000000
      length 4.117376
      axis 0.0 0.0 0.0 xyz
   end
   begin
      id 3
      name RightUpLeg_dum
      direction -1.000000 0.000000 0.000000
      length 4.117376
      axis 0.0 0.0 0.0 xyz
   end
   begin
      id 4
      name Spine
      direction 0.000000 1.000000 0.000000
      length 0.000000
      axis 0.0 0.0 0.0 xyz
      dof rx ry rz
   end
   begin
      id 5
      name Spine_dum1
      direction 0.000000 1.000000 0.000000
      length 15.393827
      axis 0.0 0.0 0.0 xyz
   end
   begin
      id 6
      name Spine_dum2
      direction 0.000000 1.000000 0.000000
      length 9.314826
      axis 0.0 0.0 0.0 xyz
   end
   begin
      id 7
      name Spine_dum3
      direction 0.000000 1.000000 0.000000
      length 9.314826
      axis 0.0 0.0 0.0 xyz
   end
   begin
      id 8
      name Head
      direction 0.000000 1.000000 0.000000
      length 4.527550
      axis 0.0 0.0 0.0 xyz
      dof rx ry rz
   end
   begin
      id 9
      name LeftShoulder
      direction 1.000000 0.000000 0.000000
      length 8.275398
      axis 0.0 0.0 -90.0 xyz
      dof rx ry rz
   end
   begin
      id 10
      name LeftArm
      direction 1.000000 0.000000 0.000000
      length 12.002200
      axis 0.0 0.0 -90.0 xyz
      dof rx ry rz
   end
   begin
      id 11
      name LeftForeArm
      direction 1.000000 0.000000 0.000000
      length 10.144633
      axis 0.0 0.0 -90.0 xyz
      dof ry rz rx
   end
   begin
      id 12
      name LeftHand
      direction 0.000000 0.000000 0.000000
      length 0.000000
      axis 0.0 0.0 -90.0 xyz
      dof rx ry rz
   end
   begin
      id 13
      name LeftHand_dum1
      direction 0.000000 0.000000 0.000000
      length 0.000000
      axis 0.0 0.0 -90.0 xyz
   end
   begin
      id 14
      name LeftHand_dum2
      direction 1.000000 0.000000 0.000000
      length 3.937000
      axis 0.0 0.0 -90.0 xyz
   end
   begin
      id 15
      name LeftHandThumb1
      direction 0.000000 0.000000 1.000000
      length 3.937000
      axis 0.0 0.0 -90.0 xyz
      dof rx rz ry
   end
   begin
      id 16
      name RightShoulder
      direction -1.000000 0.000000 0.000000
      length 8.275398
      axis 0.0 0.0 90.0 xyz
      dof rx ry rz
   end
   begin
      id 17
      name RightArm
      direction -1.000000 0.000000 0.000000
      length 12.002200
      axis 0.0 0.0 90.0 xyz
      dof rx ry rz
   end
   begin
      id 18
      name RightForeArm
      direction -1.000000 0.000000 0.000000
      length 10.144633
      axis 0.0 0.0 90.0 xyz
      dof ry rz rx
   end
   begin
      id 19
      name RightHand
      direction 0.000000 0.000000 0.000000
      length 0.000000
      axis 0.0 0.0 90.0 xyz
      dof rx ry rz
   end
   begin
      id 20
      name RightHand_dum1
      direction 0.000000 0.000000 0.000000
      length 0.000000
      axis 0.0 0.0 90.0 xyz
   end
   begin
      id 21
      name RightHand_dum2
      direction -1.000000 0.000000 0.000000
      length 3.937000
      axis 0.0 0.0 90.0 xyz
   end
   begin
      id 22
      name RightHandThumb1
      direction 0.000000 0.000000 1.000000
      length 3.937000
      axis 0.0 0.0 90.0 xyz
      dof rx rz ry
   end
   begin
      id 23
      name LeftUpLeg
      direction 0.000000 -1.000000 0.000000
      length 19.394322
      axis 0.0 0.0 0.0 xyz
      dof rx ry rz
   end
   begin
      id 24
      name LeftLeg
      direction 0.000000 -1.000000 0.000000
      length 17.609563
      axis 0.0 0.0 0.0 xyz
      dof rx ry rz
   end
   begin
      id 25
      name LeftFoot
      direction 0.000000 -0.258819 0.965926
      length 6.085393
      axis 15.0 0.0 0.0 xyz
      dof rx ry rz
   end
   begin
      id 26
      name LeftToeBase
      direction 0.000000 0.000000 1.000000
      length 2.952750
      axis 0.0 0.0 0.0 xyz
      dof rx ry rz
   end
   begin
      id 27
      name RightUpLeg
      direction 0.000000 -1.000000 0.000000
      length 19.394322
      axis 0.0 0.0 0.0 xyz
      dof rx ry rz
   end
   begin
      id 28
      name RightLeg
      direction 0.000000 -1.000000 0.000000
      length 17.609563
      axis 0.0 0.0 0.0 xyz
      dof rx ry rz
   end
   begin
      id 29
      name RightFoot
      direction 0.000000 -0.258819 0.965926
      length 6.085393
      axis 15.0 0.0 0.0 xyz
      dof rx ry rz
   end
   begin
      id 30
      name RightToeBase
      direction 0.000000 0.000000 1.000000
      length 2.952750
      axis 0.0 0.0 0.0 xyz
      dof rx ry rz
   end
:hierarchy
   begin
      root Spine_dum LeftUpLeg_dum RightUpLeg_dum
      Spine_dum Spine
      LeftUpLeg_dum LeftUpLeg
      RightUpLeg_dum RightUpLeg
      Spine Spine_dum1 Spine_dum2 Spine_dum3
      Spine_dum1 Head
      Spine_dum2 LeftShoulder
      Spine_dum3 RightShoulder
      LeftShoulder LeftArm
      LeftArm LeftForeArm
      LeftForeArm LeftHand
      LeftHand LeftHand_dum1 LeftHand_dum2
      LeftHand_dum1 LeftHandThumb1
      RightShoulder RightArm
      RightArm RightForeArm
      RightForeArm RightHand
      RightHand RightHand_dum1 RightHand_dum2
      RightHand_dum1 RightHandThumb1
      LeftUpLeg LeftLeg
      LeftLeg LeftFoot
      LeftFoot LeftToeBase
      RightUpLeg RightLeg
      RightLeg RightFoot
      RightFoot RightToeBase
   end

# File created by Blade
# Date/Time:  Wed Jan 28 15:40:07 2015
# Frame Rate: 120.000 fps
#------------------------------------------------------
:FULLY-SPECIFIED
:DEGREES
1038
root -8.585996 40.297140 -16.171653 21.582387 -46.736603 46.043768
Spine 15.752867 -1.385187 22.556967
Head -29.464951 -33.547233 -2.354466
LeftShoulder -17.969902 14.035389 -9.405958
LeftArm 8.071792 17.976654 -89.026627
LeftForeArm -19.930818 0.000000 6.823802
LeftHand -1.336610 -0.000000 -12.752437
LeftHandThumb1 -26.253704 0.000000 33.147579
RightShoulder -16.657199 7.344905 -45.492098
RightArm 4.048464 87.462523 27.798599
RightForeArm 11.947227 -0.000000 93.262023
RightHand -9.719609 -0.000000 -36.185208
RightHandThumb1 -24.326973 -0.000000 -32.862282
LeftUpLeg -17.832964 -0.348653 18.570650
LeftLeg 153.241350 -0.000000 -0.000000
LeftFoot 26.621821 -1.495799 -26.973615
LeftToeBase 5.362323 -0.000000 -0.000000
RightUpLeg -60.404017 -10.693853 -19.149468
RightLeg 22.547789 -0.000000 -0.000000
RightFoot -27.380356 -20.994708 15.378285
RightToeBase 10.671380 -0.000000 -0.000000
1039
root -8.591832 40.296234 -16.180637 21.541303 -46.719418 46.045327
Spine 15.710878 -1.331860 22.538697
Head -29.490963 -33.575325 -2.287718
LeftShoulder -17.972039 14.013286 -9.414042
LeftArm 8.040927 17.961548 -89.015531
LeftForeArm -19.970868 -0.000000 6.843345
LeftHand -1.373660 -0.000000 -12.726241
LeftHandThumb1 -26.253704 0.000000 33.147579
RightShoulder -16.658292 7.416522 -45.463226
RightArm 2.396852 87.292095 26.142424
RightForeArm 11.896362 -0.000000 93.231592
RightHand -9.748211 0.000000 -36.303666
RightHandThumb1 -24.326973 -0.000000 -32.862282
LeftUpLeg -17.897128 -0.285072 18.565244
LeftLeg 153.243569 -0.000000 -0.000000
LeftFoot 26.633348 -1.477694 -27.089250
LeftToeBase 5.361749 -0.000000 -0.000000
RightUpLeg -60.385088 -10.727393 -19.094465
RightLeg 22.573011 -0.000000 -0.000000
RightFoot -27.323493 -20.927622 15.266253
RightToeBase 10.358434 -0.000000 -0.000000
1040
root -8.599443 40.292604 -16.190499 21.506078 -46.675265 45.967662
Spine 15.720770 -1.300551 22.612051
Head -29.538330 -33.686104 -2.235694
LeftShoulder -17.955891 13.972739 -9.421554
LeftArm 8.003193 17.917741 -89.030033
LeftForeArm -19.989361 -0.000000 6.845577
LeftHand -1.364341 -0.000000 -12.687268
LeftHandThumb1 -26.253704 0.000000 33.147579
RightShoulder -16.650931 7.451709 -45.463783
RightArm 0.934566 87.165678 24.684158
RightForeArm 11.883158 -0.000000 93.227913
RightHand -9.829725 0.000000 -36.367655
RightHandThumb1 -24.326973 -0.000000 -32.862282
LeftUpLeg -17.913240 -0.269221 18.645538
LeftLeg 153.248091 -0.000000 -0.000000
LeftFoot 26.652696 -1.477483 -27.097955
LeftToeBase 5.462148 -0.000000 -0.000000
RightUpLeg -60.301161 -10.726305 -19.006174
RightLeg 22.593510 -0.000000 -0.000000
RightFoot -27.329415 -20.884267 15.251994
RightToeBase 10.253036 -0.000000 -0.000000
1041
root -8.603226 40.291339 -16.197861 21.436546 -46.675931 45.969934
Spine 15.703236 -1.233095 22.600091
Head -29.541824 -33.715895 -2.209250
LeftShoulder -17.955398 14.058780 -9.438829
LeftArm 8.092746 17.881440 -89.009352
LeftForeArm -19.969073 -0.000000 6.849497
LeftHand -1.321053 -0.000000 -12.659000
LeftHandThumb1 -26.253704 0.000000 33.147579
RightShoulder -16.662243 7.516228 -45.460152
RightArm 0.205497 86.987924 23.982101
RightForeArm 11.852868 -0.000000 93.234460
RightHand -9.803694 -0.000000 -36.388898
RightHandThumb1 -24.326973 -0.000000 -32.862282
LeftUpLeg -17.941674 -0.220965 18.631877
LeftLeg 153.247505 -0.000000 -0.000000
LeftFoot 26.668431 -1.482844 -27.076258
LeftToeBase 5.389700 -0.000000 -0.000000
RightUpLeg -60.263218 -10.724266 -18.978413
RightLeg 22.625816 -0.000000 -0.000000
RightFoot -27.352438 -20.812599 15.300501
RightToeBase 10.336805 -0.000000 -0.000000
1042
root -8.607590 40.288588 -16.205488 21.355809 -46.665772 45.961805
Spine 15.705444 -1.194393 22.588870
Head -29.551542 -33.752852 -2.172974
LeftShoulder -17.977800 14.097829 -9.437751
LeftArm 8.165797 17.892728 -88.990393
LeftForeArm -19.978676 -0.000000 6.820790
LeftHand -1.291063 0.000000 -12.643115
LeftHandThumb1 -26.253704 0.000000 33.147579
RightShoulder -16.646250 7.577368 -45.435415
RightArm -0.586427 86.842843 23.197577
RightForeArm 11.795097 -0.000000 93.230604
RightHand -9.834100 -0.000000 -36.453640
RightHandThumb1 -24.326973 -0.000000 -32.862282
LeftUpLeg -17.970656 -0.188519 18.637144
LeftLeg 153.254283 -0.000000 -0.000000
LeftFoot 26.644342 -1.446767 -27.000149
LeftToeBase 5.441780 -0.000000 -0.000000
RightUpLeg -60.198099 -10.709655 -18.953082
RightLeg 22.656057 -0.000000 -0.000000
RightFoot -27.377965 -20.760253 15.290692
RightToeBase 10.594836 -0.000000 -0.000000
1043
root -8.613301 40.285445 -16.214975 21.267033 -46.622076 45.923114
Spine 15.725910 -1.223066 22.629414
Head -29.541100 -33.798377 -2.208032
LeftShoulder -18.003773 14.129015 -9.438062
LeftArm 8.223099 17.864129 -88.998245
LeftForeArm -19.897197 0.000000 6.824894
LeftHand -1.393268 -0.000000 -12.751711
LeftHandThumb1 -26.253704 0.000000 33.147579
RightShoulder -16.619892 7.714977 -45.475393
RightArm -1.050977 86.654721 22.770447
RightForeArm 11.722631 -0.000000 93.266416
RightHand -9.929816 -0.000000 -36.428219
RightHandThumb1 -24.326973 -0.000000 -32.862282
LeftUpLeg -17.980317 -0.246943 18.698353
LeftLeg 153.256776 -0.000000 -0.000000
LeftFoot 26.681977 -1.510849 -26.873176
LeftToeBase 5.282741 -0.000000 -0.000000
RightUpLeg -60.079165 -10.687653 -18.922736
RightLeg 22.656889 -0.000000 -0.000000
RightFoot -27.412105 -20.792818 15.299912
RightToeBase 10.408986 -0.000000 -0.000000
1044
root -8.618355 40.283238 -16.220877 21.174296 -46.625735 45.937809
Spine 15.715691 -1.168824 22.613565
Head -29.533011 -33.858572 -2.211167
LeftShoulder -18.001620 14.073721 -9.437904
LeftArm 8.181099 17.882340 -88.973000
LeftForeArm -19.899782 -0.000000 6.827233
LeftHand -1.288337 -0.000000 -12.625966
LeftHandThumb1 -26.253704 0.000000 33.147579
RightShoulder -16.591523 7.741144 -45.442367
RightArm -1.445391 86.550584 22.381185
RightForeArm 11.646219 -0.000000 93.317576
RightHand -9.971007 -0.000000 -36.450440
RightHandThumb1 -24.326973 -0.000000 -32.862282
LeftUpLeg -18.005913 -0.245303 18.690081
LeftLeg 153.260991 -0.000000 -0.000000
LeftFoot 26.688574 -1.484535 -26.855607
LeftToeBase 5.172651 -0.000000 -0.000000
RightUpLeg -60.009347 -10.653797 -18.934888
RightLeg 22.666634 -0.000000 -0.000000
RightFoot -27.423177 -20.795333 15.312136
RightToeBase 10.324666 -0.000000 -0.000000
1045
root -8.623388 40.276062 -16.226995 21.105118 -46.659466 45.868490
Spine 15.765716 -1.091095 22.637510
Head -29.513885 -33.849845 -2.244681
LeftShoulder -18.036055 14.113987 -9.444491
LeftArm 8.247910 17.899387 -88.945384
LeftForeArm -19.849063 -0.000000 6.845190
LeftHand -1.325944 -0.000000 -12.573568
LeftHandThumb1 -26.253704 0.000000 33.147579
RightShoulder -16.563530 7.768327 -45.405519
RightArm -1.573138 86.469875 22.242294
RightForeArm 11.506425 -0.000000 93.327993
RightHand -10.023177 -0.000000 -36.520105
RightHandThumb1 -24.326973 -0.000000 -32.862282
LeftUpLeg -17.952406 -0.222273 18.742023
LeftLeg 153.251716 -0.000000 -0.000000
LeftFoot 26.695367 -1.492215 -26.694579
LeftToeBase 5.275698 -0.000000 -0.000000
RightUpLeg -59.921526 -10.562849 -18.897220
RightLeg 22.677340 -0.000000 -0.000000
RightFoot -27.434115 -20.812710 15.275980
RightToeBase 10.351461 -0.000000 -0.000000
1046
root -8.628630 40.273686 -16.232109 21.028350 -46.664772 45.846851
Spine 15.772148 -1.033127 22.660876
Head -29.497391 -33.895867 -2.316253
LeftShoulder -18.031207 14.088613 -9.444218
LeftArm 8.247949 17.954323 -88.919873
LeftForeArm -19.885612 -0.000000 6.831511
LeftHand -1.346711 -0.000000 -12.543122
LeftHandThumb1 -26.253704 0.000000 33.147579
RightShoulder -16.546758 7.839808 -45.398948
RightArm -1.618716 86.351206 22.193962
RightForeArm 11.439110 -0.000000 93.378523
RightHand -10.092316 -0.000000 -36.587883
RightHandThumb1 -24.326973 -0.000000 -32.862282
LeftUpLeg -17.957857 -0.249053 18.760635
LeftLeg 153.247635 -0.000000 -0.000000
LeftFoot 26.728028 -1.516912 -26.641430
LeftToeBase 5.386878 -0.000000 -0.000000
RightUpLeg -59.841549 -10.536599 -18.865003
RightLeg 22.677388 -0.000000 -0.000000
RightFoot -27.445511 -20.777709 15.266231
RightToeBase 10.395300 -0.000000 -0.000000
1047
root -8.632485 40.273181 -16.235948 20.937931 -46.691963 45.878893
Spine 15.748490 -0.978259 22.646831
Head -29.472949 -33.914149 -2.421406
LeftShoulder -18.084973 14.048716 -9.451598
LeftArm 8.240530 18.026428 -88.888295
LeftForeArm -19.860642 -0.000000 6.820810
LeftHand -1.405871 -0.000000 -12.543399
LeftHandThumb1 -26.253704 0.000000 33.147579
RightShoulder -16.541127 7.883374 -45.424843
RightArm -0.746889 86.258936 23.119843
RightForeArm 11.336827 -0.000000 93.458879
RightHand -10.145623 -0.000000 -36.543133
RightHandThumb1 -24.326973 -0.000000 -32.862282
LeftUpLeg -17.984445 -0.260948 18.731387
LeftLeg 153.224234 -0.000000 -0.000000
LeftFoot 26.799769 -1.533965 -26.631752
LeftToeBase 5.339926 -0.000000 -0.000000
RightUpLeg -59.795873 -10.523255 -18.863175
RightLeg 22.677661 -0.000000 -0.000000
RightFoot -27.429848 -20.756145 15.226084
RightToeBase 10.407581 -0.000000 -0.000000
1048
root -8.633935 40.276902 -16.240526 20.813980 -46.658467 45.976217
Spine 15.699756 -0.989191 22.604206
Head -29.479902 -33.923707 -2.478246
LeftShoulder -18.075483 14.047034 -9.464335
LeftArm 8.252393 18.022048 -88.851834
LeftForeArm -19.857901 -0.000000 6.829532
LeftHand -1.297521 -0.000000 -12.457811
LeftHandThumb1 -26.253704 0.000000 33.147579
RightShoulder -16.506948 7.956008 -45.430906
RightArm -0.587907 86.167696 23.300029
RightForeArm 11.228424 -0.000000 93.503172
RightHand -10.144181 0.000000 -36.622445
RightHandThumb1 -24.326973 -0.000000 -32.862282
LeftUpLeg -18.074711 -0.340151 18.673514
LeftLeg 153.236622 -0.000000 -0.000000
LeftFoot 26.807457 -1.539410 -26.684010
LeftToeBase 5.366350 -0.000000 -0.000000
RightUpLeg -59.750224 -10.618938 -18.849114
RightLeg 22.686232 -0.000000 -0.000000
RightFoot -27.420609 -20.672714 15.203699
RightToeBase 10.362755 -0.000000 -0.000000
1049
root -8.637734 40.271892 -16.241582 20.750873 -46.695737 45.920662
Spine 15.708680 -0.918192 22.663385
Head -29.406583 -33.925525 -2.628950
LeftShoulder -18.122114 14.052406 -9.494785
LeftArm 8.276271 18.027344 -88.823425
LeftForeArm -19.841338 -0.000000 6.828746
LeftHand -1.332624 -0.000000 -12.395081
LeftHandThumb1 -26.253704 0.000000 33.147579
RightShoulder -16.456140 8.029970 -45.465129
RightArm -0.511783 86.068847 23.374870
RightForeArm 11.097380 0.000000 93.528786
RightHand -10.176718 -0.000000 -36.648564
RightHandThumb1 -24.326973 -0.000000 -32.862282
LeftUpLeg -18.040759 -0.350319 18.711929
LeftLeg 153.194470 -0.000000 -0.000000
LeftFoot 26.925401 -1.559776 -26.548527
LeftToeBase 5.257585 -0.000000 -0.000000
RightUpLeg -59.682566 -10.596776 -18.759526
RightLeg 22.690127 -0.000000 -0.000000
RightFoot -27.418566 -20.601679 15.156741
RightToeBase 10.459213 -0.000000 -0.000000
